<?xml version="1.0" encoding="UTF-8" standalone="no"?>
<svg
   viewBox="0 96 960 960"
   version="1.1"
   id="svg1204"
   sodipodi:docname="database_add_1.svg"
   inkscape:version="1.1.2 (b8e25be8, 2022-02-05)"
   xmlns:inkscape="http://www.inkscape.org/namespaces/inkscape"
   xmlns:sodipodi="http://sodipodi.sourceforge.net/DTD/sodipodi-0.dtd"
   xmlns="http://www.w3.org/2000/svg"
   xmlns:svg="http://www.w3.org/2000/svg">
  <defs
     id="defs1208" />
  <sodipodi:namedview
     id="namedview1206"
     pagecolor="#ffffff"
     bordercolor="#666666"
     borderopacity="1.0"
     inkscape:pageshadow="2"
     inkscape:pageopacity="0.0"
     inkscape:pagecheckerboard="0"
     showgrid="false"
     inkscape:zoom="0.5"
     inkscape:cx="479"
     inkscape:cy="479"
     inkscape:window-width="1368"
     inkscape:window-height="843"
     inkscape:window-x="0"
     inkscape:window-y="37"
     inkscape:window-maximized="0"
     inkscape:current-layer="svg1204" />
  <path
     id="path1202"
     d="M 480 120 C 380.66667 120 295.83333 135.66667 225.5 167 C 155.16667 198.33333 120 236 120 280 L 120 680 C 120 724.66667 154.83333 762.5 224.5 793.5 C 294.16667 824.5 379.33333 840 480 840 C 537.1971 840 589.37515 834.98045 636.56445 824.97266 A 166 166 0 0 1 598.16602 767.97461 C 591.85014 769.19706 585.52455 770.41257 579 771.5 C 545 777.16667 512 780 480 780 C 447.33333 780 414 777.16667 380 771.5 C 346 765.83333 314.66667 758.5 286 749.5 C 257.33333 740.5 233.33333 730.16667 214 718.5 C 194.66667 706.83333 183.33333 695.33333 180 684 L 180 558 C 198 568.66667 218.33333 578.16667 241 586.5 C 263.66667 594.83333 287.83333 602 313.5 608 C 339.16667 614 366 618.5 394 621.5 C 422 624.5 450.33333 626 479 626 C 507.66667 626 535.83333 624.5 563.5 621.5 C 580.6662 619.6386 597.40063 617.12961 613.79688 614.11328 A 166 166 0 0 1 752 540 A 166 166 0 0 1 840 565.31641 L 840 280 C 840 236 804.83333 198.33333 734.5 167 C 664.16667 135.66667 579.33333 120 480 120 z M 480 180 C 536.66667 180 595.16667 189 655.5 207 C 715.83333 225 755 244.66667 773 266 C 755.66667 288 716.83333 307.83333 656.5 325.5 C 596.16667 343.16667 537.33333 352 480 352 C 420 352 360.66667 343.5 302 326.5 C 243.33333 309.5 204.66667 289.33333 186 266 C 204.66667 243.33333 243.66667 223.33333 303 206 C 362.33333 188.66667 421.33333 180 480 180 z M 180 342 C 198 352.66667 218.5 362.33333 241.5 371 C 264.5 379.66667 288.83333 387 314.5 393 C 340.16667 399 367 403.66667 395 407 C 423 410.33333 451 412 479 412 C 507 412 534.66667 410.33333 562 407 C 589.33333 403.66667 616 399 642 393 C 668 387 692.66667 379.66667 716 371 C 739.33333 362.33333 760.66667 352.66667 780 342 L 780 497 C 761.33333 507.66667 740.33333 517.33333 717 526 C 693.66667 534.66667 669.16667 542 643.5 548 C 617.83333 554 591 558.5 563 561.5 C 535 564.5 507 566 479 566 C 450.33333 566 422 564.5 394 561.5 C 366 558.5 339.16667 554 313.5 548 C 287.83333 542 263.66667 534.66667 241 526 C 218.33333 517.33333 198 507.66667 180 497 L 180 342 z "
     transform="translate(0,96)" />
  <g
     inkscape:groupmode="layer"
     id="layer3"
     inkscape:label="add"
     sodipodi:insensitive="true"
     style="display:none">
    <path
       d="m 716,924 v -80 h -80 v -80 h 80 v -80 h 80 v 80 h 80 v 80 h -80 v 80 z"
       id="path828"
       style="display:inline" />
  </g>
</svg>
