<svg version="1.1" viewBox="0 96 960 960" xmlns="http://www.w3.org/2000/svg"><path d="m480 936q-151 0-255.5-46.5t-104.5-113.5v-400q0-66 105.5-113t254.5-47 254.5 47 105.5 113v400q0 67-104.5 113.5t-255.5 46.5zm0-488q86 0 176.5-26.5t116.5-59.5q-27-32-117.5-59t-175.5-27q-88 0-177 26t-117 60q28 35 116 60.5t178 25.5zm-1 214q42 0 84-4.5t80.5-13.5 73.5-22 63-29v-155q-29 16-64 29t-74 22-80 14-83 5-84-5-80.5-14-73-22-61.5-29v155q27 16 61 29t72.5 22 80.5 13.5 85 4.5zm1 214q48 0 99-8.5t93.5-22.5 72-31 35.5-35v-125q-28 16-63 28.5t-73.5 21.5-80 13.5-84.5 4.5-85-4.5-80.5-13.5-72.5-21.5-61-28.5v126q5 17 34 34.5t72 31 94 22 100 8.5z"/><path transform="translate(0,96)" d="m480 120c-99.333 0-184.17 15.667-254.5 47s-105.5 69-105.5 113v400c0 44.667 34.833 82.5 104.5 113.5s154.83 46.5 255.5 46.5c45.394 0 87.605-3.1828 126.7-9.4863a169.23 169.23 0 0 1-31.014-58.494c-32.827 5.3027-64.726 7.9805-95.682 7.9805-32.667 0-66-2.8333-100-8.5s-65.333-13-94-22-52.667-19.333-72-31-30.667-23.167-34-34.5v-126c18 10.667 38.333 20.167 61 28.5s46.833 15.5 72.5 21.5 52.5 10.5 80.5 13.5 56.333 4.5 85 4.5 56.833-1.5 84.5-4.5c15.327-1.662 30.316-3.8313 45.029-6.4141a169.23 169.23 0 0 1 128.55-60.396 169.23 169.23 0 0 1 39.986 4.8926c0.9604-0.5359 1.9852-1.0401 2.9336-1.582v2.3301a169.23 169.23 0 0 1 60 29.326v-309.66c0-44-35.167-81.667-105.5-113s-155.17-47-254.5-47zm0 60c56.667 0 115.17 9 175.5 27s99.5 37.667 117.5 59c-17.333 22-56.167 41.833-116.5 59.5s-119.17 26.5-176.5 26.5c-60 0-119.33-8.5-178-25.5s-97.333-37.167-116-60.5c18.667-22.667 57.667-42.667 117-60s118.33-26 177-26zm-300 162c18 10.667 38.5 20.333 61.5 29s47.333 16 73 22 52.5 10.667 80.5 14 56 5 84 5 55.667-1.6667 83-5 54-8 80-14 50.667-13.333 74-22 44.667-18.333 64-29v155c-18.667 10.667-39.667 20.333-63 29s-47.833 16-73.5 22-52.5 10.5-80.5 13.5-56 4.5-84 4.5c-28.667 0-57-1.5-85-4.5s-54.833-7.5-80.5-13.5-49.833-13.333-72.5-22-43-18.333-61-29v-155z"/><path d="m701.78 945.56v-80h-80v-80h80v-80h80v80h80v80h-80v80z"/></svg>
