<?xml version="1.0" encoding="UTF-8"?>
<svg version="1.1" viewBox="0 96 960 960" xmlns="http://www.w3.org/2000/svg">
 <path transform="translate(0,96)" d="m480 120c-99.333 0-184.17 15.667-254.5 47s-105.5 69-105.5 113v400c0 44.667 34.833 82.5 104.5 113.5s154.83 46.5 255.5 46.5c57.197 0 109.38-5.0196 156.56-15.027a166 166 0 0 1-38.398-56.998c-6.3159 1.2224-12.641 2.438-19.166 3.5254-34 5.6667-67 8.5-99 8.5-32.667 0-66-2.8333-100-8.5s-65.333-13-94-22-52.667-19.333-72-31-30.667-23.167-34-34.5v-126c18 10.667 38.333 20.167 61 28.5s46.833 15.5 72.5 21.5 52.5 10.5 80.5 13.5 56.333 4.5 85 4.5 56.833-1.5 84.5-4.5c17.166-1.8614 33.901-4.3704 50.297-7.3867a166 166 0 0 1 138.2-74.113 166 166 0 0 1 88 25.316v-285.32c0-44-35.167-81.667-105.5-113s-155.17-47-254.5-47zm0 60c56.667 0 115.17 9 175.5 27s99.5 37.667 117.5 59c-17.333 22-56.167 41.833-116.5 59.5s-119.17 26.5-176.5 26.5c-60 0-119.33-8.5-178-25.5s-97.333-37.167-116-60.5c18.667-22.667 57.667-42.667 117-60s118.33-26 177-26zm-300 162c18 10.667 38.5 20.333 61.5 29s47.333 16 73 22 52.5 10.667 80.5 14 56 5 84 5 55.667-1.6667 83-5 54-8 80-14 50.667-13.333 74-22 44.667-18.333 64-29v155c-18.667 10.667-39.667 20.333-63 29s-47.833 16-73.5 22-52.5 10.5-80.5 13.5-56 4.5-84 4.5c-28.667 0-57-1.5-85-4.5s-54.833-7.5-80.5-13.5-49.833-13.333-72.5-22-43-18.333-61-29v-155z"/>
 <path d="m718 930v-80h-80v-80h80v-80h80v80h80v80h-80v80z"/>
</svg>
