<svg xmlns="http://www.w3.org/2000/svg" viewBox="0 0 512 512">
		<path fill='#01038a' d="M407,0H105C47.103,0,0,47.103,0,105v302c0,57.897,47.103,105,105,105h302c57.897,0,105-47.103,105-105V105
			C512,47.103,464.897,0,407,0z M286,418h-60v-30h60V418z M328.491,285.73c-20.699,18.149-35.037,42.456-41.714,69.163L286,358h-15
			V247h35v-30H206v30h35v111h-15l-0.777-3.106c-6.793-27.172-21.943-51.366-42.766-70.098C160.076,264.662,146,235.476,146,203
			c0-60.875,50.195-110.574,111.068-109.995C317.327,93.578,366,142.604,366,203C366,235.981,351.483,265.57,328.491,285.73z"/>
</svg>
